<?xml version="1.0" encoding="iso-8859-1"?>
<!-- Generator: Adobe Illustrator 19.0.0, SVG Export Plug-In . SVG Version: 6.00 Build 0)  -->
<svg version="1.1" fill="#536bdf" id="Capa_1" xmlns="http://www.w3.org/2000/svg" xmlns:xlink="http://www.w3.org/1999/xlink" x="0px" y="0px"
	 viewBox="0 0 480 480" style="enable-background:new 0 0 480 480;" xml:space="preserve">
<g>
	<g>
		<path d="M434.72,273.056C442.928,264.44,448,252.816,448,240c0-22.856-16.072-42-37.496-46.808l35.568-113.808
			C465.232,76.432,480,59.976,480,40c0-22.056-17.944-40-40-40c-16.664,0-30.96,10.264-36.96,24.792L284.816,46.96
			C277.92,28.888,260.464,16,240,16c-20.6,0-38.152,13.064-44.952,31.32L79.28,32.848C75.888,14.208,59.608,0,40,0
			C17.944,0,0,17.944,0,40c0,19.312,13.768,35.472,32,39.192v97.616C13.768,180.528,0,196.688,0,216
			c0,20.432,15.464,37.152,35.272,39.52l31.488,50.376C46.72,311.664,32,330.128,32,352c0,12.816,5.072,24.44,13.28,33.056
			C19.52,390.072,0,412.792,0,440v32c0,4.416,3.576,8,8,8h144c4.424,0,8-3.584,8-8v-24h200.808c3.72,18.232,19.872,32,39.192,32
			c22.056,0,40-17.944,40-40c0-19.312-13.768-35.472-32-39.192V368h64c4.424,0,8-3.584,8-8v-32
			C480,300.792,460.48,278.072,434.72,273.056z M432,240c0,17.648-14.352,32-32,32s-32-14.352-32-32s14.352-32,32-32
			S432,222.352,432,240z M440,16c13.232,0,24,10.768,24,24s-10.768,24-24,24s-24-10.768-24-24S426.768,16,440,16z M288,64
			c0-0.456-0.056-0.896-0.072-1.344L400.16,41.608c0.72,17.712,12.952,32.376,29.44,36.848l-35.616,113.96
			c-14.76,1.856-27.424,10.424-34.872,22.56l-39.24-65.4c-1.128-26.12-20.168-47.656-45.16-52.528C282.928,88.44,288,76.816,288,64z
			 M241.056,233.136L246.944,192H312c4.424,0,8-3.584,8-8v-3.12l32.304,53.84c-0.192,1.736-0.304,3.496-0.304,5.28
			c0,12.816,5.072,24.44,13.28,33.056c-20.616,4.016-37.2,19.376-43.016,39.304l-50.672-44.336
			C269.864,250.904,257.472,236.968,241.056,233.136z M256,272c0,13.232-10.768,24-24,24s-24-10.768-24-24s10.768-24,24-24
			S256,258.768,256,272z M240,32c17.648,0,32,14.352,32,32s-14.352,32-32,32s-32-14.352-32-32S222.352,32,240,32z M216,112h48
			c22.056,0,40,17.944,40,40v24H176v-24C176,129.944,193.944,112,216,112z M78.912,48.928l113.136,14.144
			C192.04,63.384,192,63.688,192,64c0,12.816,5.072,24.44,13.28,33.056c-24.344,4.744-43.072,25.304-45.056,50.512l-82.672,55.12
			c-4.648-13.056-15.744-23.064-29.552-25.88V79.192C63.328,76.064,75.424,64.12,78.912,48.928z M16,40c0-13.232,10.768-24,24-24
			s24,10.768,24,24S53.232,64,40,64S16,53.232,16,40z M16,216c0-13.232,10.768-24,24-24s24,10.768,24,24s-10.768,24-24,24
			S16,229.232,16,216z M52.968,253.656c14.264-4.936,24.776-17.616,26.568-33.064L160,166.944V184c0,4.416,3.576,8,8,8h62.776
			l-5.816,40.712c-17.416,3.12-30.792,17.528-32.56,35.368l-69.488,62.536c-7.232-14.456-21.512-24.784-38.336-26.384
			L52.968,253.656z M80,320c17.648,0,32,14.352,32,32s-14.352,32-32,32s-32-14.352-32-32S62.352,320,80,320z M144,464H16v-24
			c0-22.056,17.944-40,40-40h48c22.056,0,40,17.944,40,40V464z M158.288,426.512c-5.216-20.968-22.216-37.296-43.576-41.456
			C122.928,376.44,128,364.816,128,352c0-1.432-0.088-2.84-0.216-4.248l67.256-60.536C201.048,301.744,215.336,312,232,312
			c16.736,0,31.064-10.36,37.016-24.984l45.68,39.968L158.288,426.512z M360.808,432H179.472L320,342.576V360c0,4.416,3.576,8,8,8
			h64v32.808C376.352,404,364,416.352,360.808,432z M424,440c0,13.232-10.768,24-24,24s-24-10.768-24-24s10.768-24,24-24
			S424,426.768,424,440z M464,352H336v-24c0-22.056,17.944-40,40-40h48c22.056,0,40,17.944,40,40V352z"/>
	</g>
</g>
<g>
</g>
<g>
</g>
<g>
</g>
<g>
</g>
<g>
</g>
<g>
</g>
<g>
</g>
<g>
</g>
<g>
</g>
<g>
</g>
<g>
</g>
<g>
</g>
<g>
</g>
<g>
</g>
<g>
</g>
</svg>
