<svg id="Layer_1" enable-background="new 0 0 256 256" height="512" viewBox="0 0 256 256" width="512" xmlns="http://www.w3.org/2000/svg"><g><g><path d="m40.668 101.214c0 21.362 16.83 46.549 16.83 46.549 3.058 4.577 5.561 12.826 5.561 18.331v50.386c0 5.505 4.504 10.009 10.009 10.009h76.702c5.505 0 10.009-4.504 10.009-10.009v-1.612c0-5.505 4.504-10.009 10.009-10.009h16.859c5.505 0 10.009-4.504 10.009-10.009v-27.073c0-5.505 4.504-10.009 10.009-10.009h2.199c5.505 0 7.984-4.023 5.509-8.94l-13.216-26.256c-2.475-4.917-4.502-8.94-4.504-8.939s.441-3.686.984-8.192c0 0 0 0 0-4.228 0-5.133-.508-10.145-1.449-15.003h-154.071c-.941 4.859-1.449 9.871-1.449 15.004z" fill="#f8af23"/><g fill="#f8d323"><path d="m150.019 214.867v1.612c0 5.505-4.504 10.009-10.009 10.009h9.76c5.505 0 10.009-4.504 10.009-10.009v-1.612c0-5.505 4.504-10.009 10.009-10.009h-9.76c-5.505 0-10.009 4.504-10.009 10.009z"/><path d="m214.372 148.828-13.216-26.256c-2.475-4.917-4.502-8.94-4.504-8.939s.441-3.686.984-8.192c0 0 0 0 0-4.228 0-5.133-.508-10.145-1.449-15.003h-9.76c.941 4.858 1.449 9.87 1.449 15.003v4.228c-.543 4.506-.986 8.192-.984 8.192.002-.001 2.029 4.022 4.504 8.939l13.216 26.256c2.475 4.917-.004 8.94-5.509 8.94h-2.199c-5.505 0-10.009 4.504-10.009 10.009v27.073c0 5.505-4.504 10.009-10.009 10.009h9.76c5.505 0 10.009-4.504 10.009-10.009v-27.073c0-5.505 4.504-10.009 10.009-10.009h2.199c5.505 0 7.984-4.023 5.509-8.94z"/></g><path d="m72.818 216.479v-50.386c0-5.505-2.502-13.754-5.561-18.331 0 0-16.83-25.187-16.83-46.549 0-5.133.508-10.145 1.449-15.003h-9.76c-.941 4.858-1.449 9.87-1.449 15.003 0 21.362 16.83 46.549 16.83 46.549 3.058 4.577 5.561 12.826 5.561 18.331v50.386c0 5.505 4.504 10.009 10.009 10.009h9.76c-5.505 0-10.009-4.504-10.009-10.009z" fill="#f87023"/><path d="m148.819 133.453v56.118l-29.482-26.823-29.482 26.823v-56.118c8.799 4.652 18.848 7.284 29.482 7.284s20.683-2.632 29.482-7.284z" fill="#f46275"/><path d="m119.337 14.012c-34.984 0-63.349 28.365-63.349 63.349 0 24.351 13.717 45.485 33.868 56.092 8.799 4.652 18.848 7.284 29.482 7.284s20.682-2.632 29.482-7.284c20.15-10.607 33.868-31.741 33.868-56.092-.001-34.984-28.366-63.349-63.351-63.349z" fill="#63bce7"/><path d="m65.747 77.361c0-33.34 25.768-60.649 58.47-63.144-1.612-.123-3.236-.206-4.88-.206-34.984 0-63.349 28.365-63.349 63.349 0 24.351 13.717 45.485 33.868 56.092 8.799 4.652 18.848 7.284 29.482 7.284 1.642 0 3.268-.07 4.88-.193-8.825-.675-17.161-3.157-24.602-7.091-20.151-10.606-33.869-31.74-33.869-56.091z" fill="#6377e7"/><path d="m172.927 77.361c0-33.34-25.768-60.649-58.47-63.144 1.612-.123 3.236-.206 4.88-.206 34.984 0 63.349 28.365 63.349 63.349 0 24.351-13.717 45.485-33.868 56.092-8.799 4.652-18.848 7.284-29.482 7.284-1.642 0-3.268-.07-4.88-.193 8.825-.675 17.161-3.157 24.602-7.091 20.152-10.606 33.869-31.74 33.869-56.091z" fill="#63e2e7"/><path d="m139.086 77.374 9.443-15.705h-18.886l-10.306-17.142-10.306 17.142h-18.885l9.443 15.705-9.443 15.706h18.885l10.306 17.142 10.306-17.142h18.886z" fill="#9e9e9e"/></g><g fill="#321f7a"><path d="m88.84 93.818c.267.471.765.762 1.306.762h18.037l9.869 16.415c.271.451.759.727 1.285.727s1.015-.276 1.285-.727l9.87-16.415h18.036c.541 0 1.039-.291 1.306-.762.267-.47.259-1.048-.021-1.511l-8.978-14.933 8.978-14.933c.279-.463.287-1.041.021-1.511-.267-.471-.765-.762-1.306-.762h-18.036l-9.87-16.415c-.271-.451-.759-.727-1.285-.727s-1.015.276-1.285.727l-9.869 16.415h-18.037c-.541 0-1.039.291-1.306.762-.267.47-.259 1.048.021 1.511l8.979 14.933-8.98 14.933c-.279.464-.287 1.041-.02 1.511zm12.034-15.671c.286-.476.286-1.07 0-1.546l-8.076-13.433h16.233c.526 0 1.015-.276 1.285-.727l9.021-15.003 9.021 15.003c.271.451.759.727 1.285.727h16.232l-8.075 13.433c-.286.476-.286 1.07 0 1.546l8.075 13.433h-16.232c-.526 0-1.015.276-1.285.727l-9.021 15.003-9.021-15.003c-.271-.451-.759-.727-1.285-.727h-16.233z"/><path d="m27.323 240.488h-18.003c-.828 0-1.5.671-1.5 1.5s.672 1.5 1.5 1.5h18.003c.828 0 1.5-.671 1.5-1.5s-.672-1.5-1.5-1.5z"/><path d="m246.68 240.488h-18.003c-.828 0-1.5.671-1.5 1.5s.672 1.5 1.5 1.5h18.003c.828 0 1.5-.671 1.5-1.5s-.672-1.5-1.5-1.5z"/><path d="m218.479 240.488h-180.958c-.828 0-1.5.671-1.5 1.5s.672 1.5 1.5 1.5h180.959c.828 0 1.5-.671 1.5-1.5s-.672-1.5-1.501-1.5z"/><path d="m9.32 227.988h63.747 76.702 96.91c.828 0 1.5-.671 1.5-1.5s-.672-1.5-1.5-1.5h-89.188c2.319-2.107 3.787-5.136 3.787-8.509v-1.612c0-4.692 3.817-8.509 8.509-8.509h16.859c6.346 0 11.509-5.163 11.509-11.509v-27.073c0-4.692 3.817-8.509 8.509-8.509h2.199c3.202 0 5.696-1.186 7.023-3.339s1.265-4.915-.175-7.775l-17.365-34.491c-.051-.101-.102-.202-.153-.3.132-1.101.499-4.162.932-7.741.007-.06.011-.12.011-.18v-4.228c0-5.083-.497-10.227-1.477-15.288-.137-.706-.754-1.215-1.473-1.215h-12.421c.274-2.422.421-4.874.421-7.35 0-35.758-29.092-64.849-64.85-64.849s-64.848 29.092-64.848 64.85c0 2.476.147 4.928.421 7.35h-12.792c-.719 0-1.336.509-1.473 1.215-.979 5.061-1.477 10.205-1.477 15.288 0 21.569 16.386 46.338 17.083 47.382 2.877 4.305 5.308 12.318 5.308 17.497v50.386c0 3.373 1.467 6.402 3.787 8.509h-56.025c-.828 0-1.5.671-1.5 1.5s.672 1.5 1.5 1.5zm110.017-212.476c34.104 0 61.85 27.746 61.85 61.849 0 23.044-12.67 44.029-33.068 54.766-8.799 4.651-18.751 7.11-28.781 7.11-10.029 0-19.981-2.458-28.783-7.111-20.396-10.736-33.065-31.721-33.065-54.765-.002-34.104 27.743-61.849 61.847-61.849zm-27.982 120.37c8.672 4.16 18.292 6.355 27.981 6.355 9.691 0 19.312-2.195 27.982-6.355v50.297l-26.973-24.54c-.572-.521-1.447-.521-2.02 0l-26.972 24.54v-50.297zm-26.796 80.597v-50.386c0-5.77-2.607-14.367-5.813-19.164-.166-.249-16.577-25.065-16.577-45.716 0-4.486.402-9.023 1.196-13.503h11.955c3.155 19.672 15.198 36.922 33.036 46.63v55.23c0 .594.351 1.132.894 1.372.541.24 1.176.138 1.616-.263l28.472-25.904 28.473 25.904c.282.256.644.391 1.01.391.205 0 .412-.042.606-.128.543-.24.894-.778.894-1.372v-55.231c17.839-9.709 29.881-26.959 33.036-46.63h11.584c.794 4.48 1.196 9.017 1.196 13.503v4.138l-.687 5.696c-.325 2.713-.374 3.118-.017 3.5.462.913 2.257 4.476 4.383 8.7l13.217 26.256c.954 1.896 1.061 3.619.301 4.853-.761 1.234-2.348 1.913-4.47 1.913h-2.199c-6.346 0-11.509 5.163-11.509 11.509v27.073c0 4.692-3.817 8.509-8.509 8.509h-16.859c-6.346 0-11.509 5.163-11.509 11.509v1.612c0 4.692-3.817 8.509-8.509 8.509h-76.703c-4.691-.001-8.508-3.818-8.508-8.51z"/></g></g></svg>